<?xml version="1.0" encoding="UTF-8" standalone="no"?>
<!DOCTYPE svg PUBLIC "-//W3C//DTD SVG 20010904//EN"
              "http://www.w3.org/TR/2001/REC-SVG-20010904/DTD/svg10.dtd">

<svg xmlns="http://www.w3.org/2000/svg"
     width="0.533333in" height="0.533333in"
     viewBox="0 0 48 48">
  <path id="Selection #1"
        fill="none" stroke="black" stroke-width="1"
        d="M 19.00,11.00
           C 21.41,4.74 26.59,4.74 29.00,11.00
             36.50,8.96 38.67,11.74 37.00,19.00
             43.26,21.41 43.26,26.59 37.00,29.00
             39.04,36.50 36.26,38.67 29.00,37.00
             26.59,43.26 21.41,43.26 19.00,37.00
             11.50,39.04 9.33,36.26 11.00,29.00
             4.74,26.59 4.74,21.41 11.00,19.00
             8.96,11.50 11.74,9.33 19.00,11.00 Z
           M 24.00,10.00
           C 20.32,15.04 20.28,15.05 14.00,14.00
             14.98,19.86 15.21,20.72 10.00,24.00
             15.41,27.91 15.47,27.45 14.00,34.00
             19.86,33.02 20.72,32.79 24.00,38.00
             27.51,33.19 27.90,32.59 34.00,34.00
             32.95,27.72 32.96,27.68 38.00,24.00
             32.96,20.32 32.95,20.28 34.00,14.00
             28.16,14.84 27.77,14.44 24.00,10.00 Z
           M 21.23,18.74
           C 23.69,18.16 26.22,17.70 28.26,19.74
             30.84,22.31 30.18,27.72 26.77,29.26
             19.89,32.36 14.45,23.62 21.23,18.74 Z
           M 26.00,22.00
           C 26.00,22.00 22.00,22.00 22.00,22.00
             22.00,22.00 22.00,26.00 22.00,26.00
             22.00,26.00 26.00,26.00 26.00,26.00
             26.00,26.00 26.00,22.00 26.00,22.00 Z" />
</svg>
