<svg xmlns="http://www.w3.org/2000/svg" viewBox="0 0 48 48" xmlns:xlink="http://www.w3.org/1999/xlink" xml:space="preserve" width="100%" height="100%"><path d="M40.34 7.82A1.52 1.52 0 0 0 39 7H25a1.5 1.5 0 0 0 0 3h11l-3.7 5.12a1.488 1.488 0 1 0 2.4 1.76l5.5-7.5a1.46 1.46 0 0 0 .14-1.56M17.3 7.44h-.1a1.6 1.6 0 0 0-.38-.24 1.6 1.6 0 0 0-.44-.1H9a1.52 1.52 0 0 0-1.34.82 1.46 1.46 0 0 0 .14 1.56L18.5 24v15.5A1.52 1.52 0 0 0 20 41h8a1.52 1.52 0 0 0 1.5-1.5V24l.12-.18 7.32 7.24a1.48 1.48 0 0 0 1.06.44 1.46 1.46 0 0 0 1.06-.44 1.5 1.5 0 0 0 0-2.12Zm9.5 15.18a1.4 1.4 0 0 0-.3.88V38h-5V23.5a1.4 1.4 0 0 0-.3-.88L12 10h3.64l11.82 11.7Z"></path></svg>