<svg xmlns="http://www.w3.org/2000/svg" viewBox="0 0 48 48" xmlns:xlink="http://www.w3.org/1999/xlink" xml:space="preserve" width="100%" height="100%"><path d="M18.7 33.76c0 .14-.14.24-.34.24s-.36 0-.36-.24.16-.24.34-.24.36.1.36.24m-2-.3c0 .14 0 .3.28.34a.3.3 0 0 0 .4-.14c0-.14 0-.28-.28-.34s-.36 0-.4.14m2.84-.1c-.18 0-.3.16-.28.32s.18.22.38.18.3-.18.28-.32-.18-.2-.38-.18M23.8 8A15.66 15.66 0 0 0 8 24.14 16.58 16.58 0 0 0 18.94 40c.82.14 1.12-.38 1.12-.8v-4s-4.52 1-5.48-2c0 0-.72-2-1.78-2.42 0 0-1.48-1.04.1-1.02a3.34 3.34 0 0 1 2.48 1.7 3.38 3.38 0 0 0 4.72 1.38 3.66 3.66 0 0 1 1.02-2.22c-3.6-.42-7.24-.94-7.24-7.32a5.08 5.08 0 0 1 1.52-3.9 6.4 6.4 0 0 1 .16-4.48c1.36-.44 4.46 1.78 4.46 1.78a14.9 14.9 0 0 1 8.1 0s3.1-2.22 4.46-1.78a6.28 6.28 0 0 1 .16 4.48 5.2 5.2 0 0 1 1.66 3.9c0 6.4-3.8 6.9-7.4 7.32a4 4 0 0 1 1 3v5.54a.84.84 0 0 0 1.12.8A16.44 16.44 0 0 0 40 24.14 16 16 0 0 0 23.8 8m-9.52 22.82v.34a.24.24 0 0 0 .34 0s0-.22 0-.36-.26-.06-.34.02m-.7-.54s0 .2.14.26a.18.18 0 0 0 .28 0s0-.2-.14-.26-.24-.06-.28 0m2 2.36v.42c0 .14.34.16.42 0s0-.28 0-.42-.26-.1-.34 0Zm-.74-.98v.4c0 .16.28.22.38.16a.32.32 0 0 0 0-.42c-.1-.16-.26-.22-.38-.14"></path></svg>