<svg xmlns="http://www.w3.org/2000/svg" viewBox="0 0 48 48" xmlns:xlink="http://www.w3.org/1999/xlink" xml:space="preserve" width="100%" height="100%"><g xmlns="http://www.w3.org/2000/svg" fill="none"><path stroke="#333" stroke-linejoin="round" stroke-width="4" d="M24 44c11.046 0 20-8.954 20-20S35.046 4 24 4 4 12.954 4 24s8.954 20 20 20z"></path><path stroke="#333" stroke-linejoin="round" stroke-width="4" d="M24 18a3 3 0 100-6 3 3 0 000 6zm0 18a3 3 0 100-6 3 3 0 000 6zm-9-9a3 3 0 100-6 3 3 0 000 6zm18 0a3 3 0 100-6 3 3 0 000 6z"></path><path stroke="#333" stroke-linecap="round" stroke-width="4" d="M24 44h20"></path></g></svg>